<svg width="60" height="60" viewBox="0 0 60 60" fill="none" xmlns="http://www.w3.org/2000/svg">
<path d="M29.9997 51C22.708 51 16.2622 47.2667 12.4997 41.6667C12.5872 35.8333 24.1663 32.625 29.9997 32.625C35.833 32.625 47.4122 35.8333 47.4997 41.6667C43.7372 47.2667 37.2913 51 29.9997 51ZM29.9997 9.58333C32.3203 9.58333 34.5459 10.5052 36.1869 12.1461C37.8278 13.7871 38.7497 16.0127 38.7497 18.3333C38.7497 20.654 37.8278 22.8796 36.1869 24.5205C34.5459 26.1615 32.3203 27.0833 29.9997 27.0833C27.679 27.0833 25.4534 26.1615 23.8125 24.5205C22.1715 22.8796 21.2497 20.654 21.2497 18.3333C21.2497 16.0127 22.1715 13.7871 23.8125 12.1461C25.4534 10.5052 27.679 9.58333 29.9997 9.58333ZM29.9997 0.833328C26.1695 0.833328 22.3767 1.58775 18.8381 3.05351C15.2994 4.51927 12.0841 6.66767 9.37573 9.37605C3.90592 14.8459 0.833008 22.2645 0.833008 30C0.833008 37.7355 3.90592 45.1541 9.37573 50.6239C12.0841 53.3323 15.2994 55.4807 18.8381 56.9465C22.3767 58.4122 26.1695 59.1667 29.9997 59.1667C37.7352 59.1667 45.1538 56.0938 50.6236 50.6239C56.0934 45.1541 59.1663 37.7355 59.1663 30C59.1663 13.8708 46.0413 0.833328 29.9997 0.833328Z" fill="#FF5E00"/>
</svg>
