<svg width="207" height="87" viewBox="0 0 207 87" fill="none" xmlns="http://www.w3.org/2000/svg">
<path d="M12.9765 86.3295C12.5674 86.3295 12.1607 86.3101 11.754 86.2667C11.3473 86.2256 10.9429 86.1652 10.541 86.0831C10.1413 86.001 9.74409 85.8995 9.35394 85.7788C8.96141 85.658 8.57835 85.5155 8.20002 85.3561C7.82169 85.1967 7.45281 85.0179 7.09339 84.8223C6.73161 84.6242 6.38165 84.4117 6.04115 84.1798C5.70302 83.948 5.37434 83.6992 5.05749 83.4335C4.743 83.1702 4.44033 82.8901 4.14949 82.5954C3.86101 82.3007 3.58672 81.9916 3.32661 81.6679C3.06887 81.3467 2.82532 81.0109 2.59832 80.6656C2.36896 80.3178 2.16087 79.9603 1.96698 79.5932C1.77308 79.226 1.60047 78.8492 1.44204 78.4628C1.28598 78.0788 1.14883 77.6851 1.02824 77.2866C0.910008 76.888 0.810696 76.4847 0.7303 76.0741C0.649904 75.6659 0.590789 75.2529 0.548227 74.8374C0.508029 74.4244 0.489112 74.0066 0.486748 73.5911V39.4194C0.484383 37.7939 0.782321 36.2288 1.3782 34.7216C1.97644 33.2169 2.83005 31.8812 3.93904 30.7146L29.5026 3.74777C29.739 3.49416 29.9897 3.25504 30.2498 3.028C30.5122 2.80338 30.7842 2.58842 31.0655 2.39036C31.3493 2.19231 31.6401 2.00875 31.9404 1.83967C32.2407 1.6706 32.5505 1.51844 32.865 1.38077C33.1818 1.24309 33.5034 1.12233 33.8297 1.01847C34.1584 0.914613 34.4895 0.827661 34.8252 0.757618C35.1634 0.687574 35.5015 0.636853 35.842 0.600623C36.1849 0.564393 36.5254 0.547486 36.8682 0.547486C37.2135 0.547486 37.554 0.564393 37.8968 0.600623C38.2373 0.636853 38.5755 0.687574 38.9112 0.757618C39.2494 0.827661 39.5804 0.914613 39.9091 1.01847C40.2354 1.12233 40.557 1.24309 40.8738 1.38077C41.1883 1.51844 41.4957 1.6706 41.7984 1.83967C42.0987 2.00875 42.3895 2.19231 42.6709 2.39036C42.9547 2.58842 43.2266 2.80338 43.4867 3.028C43.7492 3.25504 43.9998 3.49416 44.2363 3.74777L72.1809 33.2266C72.3559 33.4101 72.512 33.6082 72.6491 33.8231C72.7862 34.0357 72.8997 34.2627 72.992 34.4994C73.0842 34.7361 73.1551 34.9801 73.2001 35.2313C73.245 35.4825 73.2663 35.7361 73.2615 35.9921C73.2592 36.2457 73.2308 36.4993 73.1788 36.7481C73.1267 36.9993 73.0487 37.2408 72.9494 37.4751C72.8501 37.7094 72.7295 37.9316 72.5876 38.1417C72.4457 38.3518 72.285 38.5451 72.1052 38.7238C71.9232 38.9001 71.7293 39.0571 71.5188 39.1972C71.3084 39.3349 71.0861 39.4508 70.8544 39.5426C70.6203 39.6368 70.3815 39.7068 70.1332 39.7527C69.8873 39.7962 69.639 39.8179 69.3883 39.8131C69.1401 39.8083 68.8918 39.7769 68.6482 39.7237C68.4023 39.6682 68.1658 39.5885 67.9365 39.487C67.7071 39.3856 67.4896 39.26 67.2839 39.1127C67.0805 38.9677 66.8913 38.8011 66.7164 38.6175L38.7694 9.14839C38.6488 9.01554 38.514 8.8972 38.3674 8.79334C38.2231 8.68948 38.0671 8.60011 37.9039 8.52765C37.7408 8.45761 37.5729 8.40206 37.3979 8.36583C37.2229 8.32718 37.0479 8.31028 36.8682 8.31028C36.6909 8.31028 36.5159 8.32718 36.3409 8.36583C36.1659 8.40206 35.9981 8.45761 35.8349 8.52765C35.6694 8.60011 35.5157 8.68948 35.3691 8.79334C35.2248 8.8972 35.0901 9.01554 34.9695 9.14839L9.40359 36.1056C8.9827 36.55 8.65875 37.0621 8.43411 37.6369C8.20711 38.2117 8.09598 38.8083 8.10071 39.4291V73.5911C8.10071 73.9172 8.13381 74.2409 8.19529 74.5621C8.25913 74.8833 8.35135 75.1949 8.47431 75.4968C8.59727 75.7987 8.7486 76.0861 8.92595 76.3591C9.10565 76.6296 9.30664 76.8832 9.53364 77.1126C9.76064 77.3445 10.0066 77.5522 10.2738 77.7334C10.541 77.9145 10.8223 78.0691 11.1179 78.1947C11.4159 78.3203 11.7209 78.4145 12.0354 78.4797C12.3499 78.5425 12.6667 78.5763 12.9883 78.5763H60.7718C61.0224 78.5763 61.2684 78.6005 61.5143 78.6512C61.7578 78.6995 61.9967 78.7744 62.226 78.871C62.4577 78.9676 62.6777 79.0884 62.8834 79.2285C63.0915 79.371 63.283 79.5304 63.4603 79.7115C63.6377 79.8902 63.7937 80.0883 63.9332 80.2984C64.0704 80.511 64.1886 80.7332 64.2832 80.9699C64.3802 81.2042 64.4511 81.4481 64.5007 81.6969C64.548 81.9457 64.5741 82.1993 64.5741 82.4529C64.5741 82.7089 64.548 82.9601 64.5007 83.2089C64.4511 83.4601 64.3802 83.7016 64.2832 83.9359C64.1886 84.1726 64.0704 84.3948 63.9332 84.6073C63.7937 84.8199 63.6377 85.0155 63.4603 85.1943C63.283 85.3754 63.0915 85.5348 62.8834 85.6773C62.6777 85.8174 62.4577 85.9382 62.226 86.0348C61.9967 86.1338 61.7578 86.2063 61.5143 86.257C61.2684 86.3053 61.0224 86.3295 60.7718 86.3295H12.9765Z" fill="#FF5E00"/>
<path d="M79.8136 86C78.7826 86 77.854 85.7844 77.0276 85.3495C76.2091 84.9183 75.5638 84.3207 75.0916 83.5643C74.6194 82.8003 74.3833 81.9455 74.3833 81.0076C74.3833 80.062 74.6194 79.2073 75.0916 78.4508C75.5638 77.6868 76.2091 77.0855 77.0276 76.6505C77.854 76.2194 78.7826 76 79.8136 76C80.8288 76 81.7496 76.2194 82.5681 76.6505C83.3945 77.0855 84.0398 77.6793 84.5041 78.4357C84.9763 79.1921 85.2124 80.0507 85.2124 81.0076C85.2124 81.9569 84.9763 82.8079 84.5041 83.5643C84.0398 84.3207 83.3945 84.9183 82.5681 85.3495C81.7496 85.7844 80.8288 86 79.8136 86ZM79.8136 84.7595C80.5573 84.7595 81.2302 84.6006 81.8283 84.2753C82.4265 83.9425 82.8908 83.4962 83.2292 82.9289C83.5755 82.354 83.7486 81.7148 83.7486 81.0076C83.7486 80.2927 83.5755 79.6536 83.2292 79.0862C82.8908 78.5113 82.4265 78.0651 81.8283 77.7398C81.2302 77.407 80.5573 77.2405 79.8136 77.2405C79.066 77.2405 78.3891 77.407 77.7831 77.7398C77.1732 78.0651 76.6971 78.5113 76.3508 79.0862C76.0124 79.6536 75.8471 80.2927 75.8471 81.0076C75.8471 81.7148 76.0124 82.354 76.3508 82.9289C76.6971 83.4962 77.1732 83.9425 77.7831 84.2753C78.3891 84.6006 79.066 84.7595 79.8136 84.7595Z" fill="white"/>
<path d="M102.008 76.1059V85.8941H100.811L94.7042 78.6021V85.8941H93.2561V76.1059H94.4523L100.559 83.413V76.1059H102.008Z" fill="white"/>
<path d="M110.888 76.1059H112.336V84.6838H117.861V85.8941H110.888V76.1059Z" fill="white"/>
<path d="M125.348 76.1059H126.796V85.8941H125.348V76.1059Z" fill="white"/>
<path d="M144.431 76.1059V85.8941H143.235L137.127 78.6021V85.8941H135.679V76.1059H136.876L142.983 83.413V76.1059H144.431Z" fill="white"/>
<path d="M160.693 84.6838V85.8941H153.311V76.1059H160.489V77.3313H154.759V80.3268H159.875V81.5219H154.759V84.6838H160.693Z" fill="white"/>
<path d="M40.8972 65.7411C39.3271 65.7411 37.9178 65.403 36.6693 64.7267C35.4256 64.0456 34.449 63.1012 33.7372 61.8959C33.0231 60.6859 32.6685 59.3164 32.6685 57.7899C32.6685 56.2635 33.0231 54.8988 33.7372 53.6936C34.449 52.4835 35.4256 51.5391 36.6693 50.8628C37.9178 50.1817 39.3271 49.8387 40.8972 49.8387C42.2639 49.8387 43.4983 50.0875 44.5954 50.5827C45.6926 51.0802 46.6029 51.7951 47.3289 52.7275L44.6333 55.2104C43.6685 54.0196 42.4957 53.4231 41.1147 53.4231C40.3013 53.4231 39.5754 53.6066 38.9393 53.9737C38.308 54.336 37.8162 54.8481 37.4638 55.5099C37.1162 56.1741 36.9436 56.9349 36.9436 57.7899C36.9436 58.6474 37.1162 59.4082 37.4638 60.07C37.8162 60.7342 38.308 61.2486 38.9393 61.6158C39.5754 61.9781 40.3013 62.1568 41.1147 62.1568C42.4957 62.1568 43.6685 61.5626 44.6333 60.3695L47.3289 62.8524C46.6029 63.7871 45.6926 64.5021 44.5954 64.9972C43.4983 65.4923 42.2639 65.7411 40.8972 65.7411Z" fill="white"/>
<path d="M58.8939 65.7411C57.3097 65.7411 55.8885 65.4006 54.6282 64.717C53.3655 64.0287 52.3771 63.0819 51.6583 61.8766C50.9395 60.6666 50.5801 59.3043 50.5801 57.7899C50.5801 56.278 50.9395 54.9182 51.6583 53.7129C52.3771 52.5028 53.3655 51.556 54.6282 50.8725C55.8885 50.1842 57.3097 49.8388 58.8939 49.8388C60.4758 49.8388 61.8969 50.1842 63.1596 50.8725C64.42 51.556 65.4107 52.5028 66.1296 53.7129C66.8484 54.9182 67.2078 56.278 67.2078 57.7899C67.2078 59.3043 66.8484 60.6666 66.1296 61.8766C65.4107 63.0819 64.42 64.0287 63.1596 64.717C61.8969 65.4006 60.4758 65.7411 58.8939 65.7411ZM58.8939 62.1568C59.6506 62.1568 60.334 61.9781 60.9464 61.6158C61.5564 61.2487 62.0388 60.7342 62.3935 60.07C62.7529 59.4082 62.9326 58.6474 62.9326 57.7899C62.9326 56.9349 62.7529 56.1741 62.3935 55.5099C62.0388 54.8481 61.5564 54.3361 60.9464 53.9738C60.334 53.6066 59.6506 53.4231 58.8939 53.4231C58.1373 53.4231 57.4515 53.6066 56.8415 53.9738C56.229 54.3361 55.7443 54.8481 55.3849 55.5099C55.0302 56.1741 54.8552 56.9349 54.8552 57.7899C54.8552 58.6474 55.0302 59.4082 55.3849 60.07C55.7443 60.7342 56.229 61.2487 56.8415 61.6158C57.4515 61.9781 58.1373 62.1568 58.8939 62.1568Z" fill="white"/>
<path d="M78.1112 61.3743H75.8034V65.432H71.566V50.1479H78.4044C79.7593 50.1479 80.9345 50.3774 81.9324 50.8339C82.9278 51.2928 83.6963 51.9497 84.2402 52.8048C84.7817 53.6549 85.0536 54.6549 85.0536 55.7997C85.0536 56.9084 84.8006 57.8745 84.2969 58.6981C83.7909 59.5169 83.0697 60.1618 82.131 60.6303L85.3563 65.432H80.8257L78.1112 61.3743ZM80.7784 55.7997C80.7784 55.092 80.5562 54.5414 80.1164 54.1477C79.6742 53.7564 79.0192 53.5583 78.149 53.5583H75.8034V58.0315H78.149C79.0192 58.0315 79.6742 57.8382 80.1164 57.4518C80.5562 57.0653 80.7784 56.5147 80.7784 55.7997Z" fill="white"/>
<path d="M96.0656 61.3743H93.7577V65.432H89.5204V50.1479H96.3588C97.7137 50.1479 98.8889 50.3774 99.8867 50.8339C100.882 51.2928 101.651 51.9497 102.195 52.8048C102.736 53.6549 103.008 54.6549 103.008 55.7997C103.008 56.9084 102.755 57.8745 102.251 58.6981C101.745 59.5169 101.024 60.1618 100.085 60.6303L103.311 65.432H98.7801L96.0656 61.3743ZM98.7328 55.7997C98.7328 55.092 98.5105 54.5414 98.0707 54.1477C97.6285 53.7564 96.9736 53.5583 96.1034 53.5583H93.7577V58.0315H96.1034C96.9736 58.0315 97.6285 57.8382 98.0707 57.4518C98.5105 57.0653 98.7328 56.5147 98.7328 55.7997Z" fill="white"/>
<path d="M119.487 62.0892V65.432H107.475V50.1479H119.212V53.4907H111.665V56.0606H118.314V59.2971H111.665V62.0892H119.487Z" fill="white"/>
<path d="M127.163 53.5776H122.566V50.1479H135.969V53.5776H131.391V65.432H127.163V53.5776Z" fill="white"/>
<path d="M147.233 65.7411C145.649 65.7411 144.228 65.4006 142.968 64.717C141.705 64.0287 140.717 63.0819 139.998 61.8766C139.279 60.6666 138.919 59.3043 138.919 57.7899C138.919 56.278 139.279 54.9182 139.998 53.7129C140.717 52.5028 141.705 51.556 142.968 50.8725C144.228 50.1842 145.649 49.8388 147.233 49.8388C148.815 49.8388 150.236 50.1842 151.499 50.8725C152.759 51.556 153.75 52.5028 154.469 53.7129C155.188 54.9182 155.547 56.278 155.547 57.7899C155.547 59.3043 155.188 60.6666 154.469 61.8766C153.75 63.0819 152.759 64.0287 151.499 64.717C150.236 65.4006 148.815 65.7411 147.233 65.7411ZM147.233 62.1568C147.99 62.1568 148.673 61.9781 149.286 61.6158C149.896 61.2487 150.378 60.7342 150.733 60.07C151.092 59.4082 151.272 58.6474 151.272 57.7899C151.272 56.9349 151.092 56.1741 150.733 55.5099C150.378 54.8481 149.896 54.3361 149.286 53.9738C148.673 53.6066 147.99 53.4231 147.233 53.4231C146.477 53.4231 145.791 53.6066 145.181 53.9738C144.568 54.3361 144.084 54.8481 143.724 55.5099C143.37 56.1741 143.195 56.9349 143.195 57.7899C143.195 58.6474 143.37 59.4082 143.724 60.07C144.084 60.7342 144.568 61.2487 145.181 61.6158C145.791 61.9781 146.477 62.1568 147.233 62.1568Z" fill="white"/>
<path d="M166.451 61.3743H164.143V65.432H159.906V50.1479H166.744C168.099 50.1479 169.274 50.3774 170.272 50.8339C171.267 51.2928 172.036 51.9497 172.58 52.8048C173.121 53.6549 173.393 54.6549 173.393 55.7997C173.393 56.9084 173.14 57.8745 172.636 58.6981C172.13 59.5169 171.409 60.1618 170.47 60.6303L173.696 65.432H169.165L166.451 61.3743ZM169.118 55.7997C169.118 55.092 168.896 54.5414 168.456 54.1477C168.014 53.7564 167.359 53.5583 166.489 53.5583H164.143V58.0315H166.489C167.359 58.0315 168.014 57.8382 168.456 57.4518C168.896 57.0653 169.118 56.5147 169.118 55.7997Z" fill="white"/>
<path d="M189.872 62.0892V65.432H177.86V50.1479H189.598V53.4907H182.05V56.0606H188.699V59.2971H182.05V62.0892H189.872Z" fill="white"/>
<path d="M199.62 65.7411C198.409 65.7411 197.231 65.589 196.092 65.2871C194.949 64.9779 194.023 64.5697 193.311 64.0601L194.701 60.8719C195.375 61.3235 196.153 61.6882 197.037 61.9636C197.919 62.2414 198.787 62.379 199.638 62.379C201.265 62.379 202.079 61.9636 202.079 61.1327C202.079 60.6956 201.845 60.3695 201.379 60.1569C200.918 59.9444 200.173 59.7222 199.147 59.4903C198.023 59.2464 197.085 58.9831 196.328 58.6981C195.571 58.4155 194.921 57.9614 194.38 57.3359C193.843 56.7055 193.576 55.8577 193.576 54.795C193.576 53.8675 193.824 53.0318 194.323 52.2831C194.819 51.5295 195.564 50.9353 196.555 50.4957C197.543 50.0586 198.759 49.8388 200.197 49.8388C201.18 49.8388 202.147 49.9523 203.1 50.1769C204.058 50.4039 204.9 50.7348 205.626 51.172L204.32 54.3795C202.894 53.5946 201.514 53.2009 200.178 53.2009C199.338 53.2009 198.726 53.3313 198.343 53.5873C197.957 53.8458 197.766 54.1766 197.766 54.5824C197.766 54.9882 197.993 55.2949 198.447 55.5002C198.901 55.7007 199.634 55.9108 200.65 56.1282C201.785 56.3794 202.727 56.6475 203.479 56.9301C204.228 57.2151 204.878 57.6644 205.427 58.2827C205.976 58.901 206.25 59.7415 206.25 60.8042C206.25 61.7196 205.999 62.5505 205.503 63.2968C205.004 64.0383 204.254 64.6301 203.252 65.0745C202.254 65.5189 201.043 65.7411 199.62 65.7411Z" fill="white"/>
</svg>
