<svg width="227" height="140" viewBox="0 0 227 140" fill="none" xmlns="http://www.w3.org/2000/svg">
<mask id="mask0_111_375" style="mask-type:luminance" maskUnits="userSpaceOnUse" x="10" y="21" width="74" height="87">
<path d="M10.4424 21.5475H83.5364V107.339H10.4424V21.5475Z" fill="white"/>
</mask>
<g mask="url(#mask0_111_375)">
<path d="M70.7629 107.329H22.977C22.568 107.329 22.1613 107.31 21.7546 107.267C21.3478 107.226 20.9435 107.165 20.5415 107.083C20.1419 107.001 19.7447 106.9 19.3545 106.779C18.962 106.658 18.5789 106.515 18.2006 106.356C17.8223 106.197 17.4534 106.018 17.094 105.822C16.7322 105.624 16.3822 105.412 16.0417 105.18C15.7036 104.948 15.3749 104.699 15.0581 104.434C14.7436 104.17 14.4409 103.89 14.1501 103.595C13.8616 103.301 13.5873 102.992 13.3272 102.668C13.0694 102.347 12.8259 102.011 12.5989 101.666C12.3695 101.318 12.1614 100.96 11.9675 100.593C11.7737 100.226 11.601 99.8493 11.4426 99.4628C11.2865 99.0788 11.1494 98.6851 11.0288 98.2865C10.9106 97.888 10.8113 97.4847 10.7309 97.0741C10.6505 96.6659 10.5914 96.2529 10.5488 95.8374C10.5086 95.4244 10.4897 95.0066 10.4873 94.5911V60.4194C10.485 58.7939 10.7829 57.2288 11.3788 55.7216C11.977 54.2169 12.8306 52.8812 13.9396 51.7146L39.5031 24.7478C39.7396 24.4942 39.9902 24.255 40.2503 24.028C40.5128 23.8034 40.7847 23.5884 41.0661 23.3904C41.3499 23.1923 41.6407 23.0087 41.941 22.8397C42.2413 22.6706 42.5511 22.5184 42.8656 22.3808C43.1824 22.2431 43.504 22.1223 43.8303 22.0185C44.159 21.9146 44.49 21.8277 44.8258 21.7576C45.1639 21.6876 45.5021 21.6369 45.8426 21.6006C46.1854 21.5644 46.5259 21.5475 46.8688 21.5475C47.214 21.5475 47.5545 21.5644 47.8974 21.6006C48.2379 21.6369 48.576 21.6876 48.9118 21.7576C49.2499 21.8277 49.581 21.9146 49.9097 22.0185C50.236 22.1223 50.5575 22.2431 50.8744 22.3808C51.1889 22.5184 51.4963 22.6706 51.799 22.8397C52.0993 23.0087 52.3901 23.1923 52.6715 23.3904C52.9552 23.5884 53.2272 23.8034 53.4873 24.028C53.7497 24.255 54.0004 24.4942 54.2368 24.7478L82.1815 54.2266C82.3565 54.4101 82.5125 54.6082 82.6497 54.8231C82.7868 55.0357 82.9003 55.2627 82.9925 55.4994C83.0848 55.7361 83.1557 55.9801 83.2006 56.2313C83.2455 56.4825 83.2668 56.7361 83.2621 56.9921C83.2597 57.2457 83.2314 57.4993 83.1793 57.7481C83.1273 57.9993 83.0493 58.2408 82.95 58.4751C82.8507 58.7094 82.7301 58.9316 82.5882 59.1417C82.4463 59.3518 82.2855 59.5451 82.1058 59.7238C81.9237 59.9001 81.7299 60.0571 81.5194 60.1972C81.309 60.3349 81.0867 60.4508 80.8549 60.5426C80.6209 60.6368 80.382 60.7068 80.1338 60.7527C79.8878 60.7962 79.6396 60.8179 79.3889 60.8131C79.1406 60.8083 78.8923 60.7769 78.6488 60.7237C78.4029 60.6682 78.1664 60.5885 77.9371 60.487C77.7077 60.3856 77.4902 60.26 77.2844 60.1127C77.0811 59.9677 76.8919 59.8011 76.7169 59.6175L48.7699 30.1484C48.6493 30.0155 48.5145 29.8972 48.3679 29.7933C48.2237 29.6895 48.0676 29.6001 47.9045 29.5277C47.7413 29.4576 47.5734 29.4021 47.3985 29.3658C47.2235 29.3272 47.0485 29.3103 46.8688 29.3103C46.6915 29.3103 46.5165 29.3272 46.3415 29.3658C46.1665 29.4021 45.9986 29.4576 45.8355 29.5277C45.67 29.6001 45.5163 29.6895 45.3697 29.7933C45.2254 29.8972 45.0906 30.0155 44.97 30.1484L19.4042 57.1056C18.9833 57.55 18.6593 58.0621 18.4347 58.6369C18.2077 59.2118 18.0965 59.8083 18.1013 60.4291V94.5911C18.1013 94.9172 18.1344 95.2409 18.1959 95.5621C18.2597 95.8833 18.3519 96.1949 18.4749 96.4968C18.5978 96.7987 18.7492 97.0861 18.9265 97.3591C19.1062 97.6296 19.3072 97.8832 19.5342 98.1126C19.7612 98.3445 20.0071 98.5522 20.2743 98.7334C20.5415 98.9145 20.8229 99.0691 21.1185 99.1947C21.4164 99.3203 21.7215 99.4145 22.0359 99.4797C22.3504 99.5425 22.6673 99.5763 22.9889 99.5763H70.7724C71.023 99.5763 71.2689 99.6005 71.5149 99.6512C71.7584 99.6995 71.9972 99.7744 72.2266 99.871C72.4583 99.9676 72.6782 100.088 72.8839 100.228C73.092 100.371 73.2836 100.53 73.4609 100.712C73.6382 100.89 73.7943 101.088 73.9338 101.298C74.071 101.511 74.1892 101.733 74.2838 101.97C74.3807 102.204 74.4517 102.448 74.5013 102.697C74.5486 102.946 74.5746 103.199 74.5746 103.453C74.5746 103.709 74.5486 103.96 74.5013 104.209C74.4517 104.46 74.3807 104.702 74.2838 104.936C74.1892 105.173 74.071 105.395 73.9338 105.607C73.7943 105.82 73.6382 106.016 73.4609 106.194C73.2836 106.375 73.092 106.535 72.8839 106.677C72.6782 106.817 72.4583 106.938 72.2266 107.035C71.9972 107.134 71.7584 107.206 71.5149 107.257C71.2689 107.305 71.023 107.329 70.7724 107.329H70.7629Z" fill="#FF5E00"/>
</g>
<path d="M87.6459 106.328C87.0264 106.328 86.4684 106.19 85.9718 105.913C85.48 105.637 85.0922 105.256 84.8084 104.773C84.5247 104.285 84.3828 103.739 84.3828 103.14C84.3828 102.536 84.5247 101.99 84.8084 101.507C85.0922 101.019 85.48 100.635 85.9718 100.357C86.4684 100.082 87.0264 99.9419 87.6459 99.9419C88.256 99.9419 88.8093 100.082 89.3011 100.357C89.7977 100.635 90.1855 101.014 90.4645 101.497C90.7483 101.98 90.8901 102.529 90.8901 103.14C90.8901 103.746 90.7483 104.289 90.4645 104.773C90.1855 105.256 89.7977 105.637 89.3011 105.913C88.8093 106.19 88.256 106.328 87.6459 106.328ZM87.6459 105.536C88.0928 105.536 88.4972 105.434 88.8566 105.227C89.216 105.014 89.495 104.729 89.6984 104.367C89.9065 104 90.0105 103.591 90.0105 103.14C90.0105 102.683 89.9065 102.275 89.6984 101.913C89.495 101.546 89.216 101.261 88.8566 101.053C88.4972 100.84 88.0928 100.734 87.6459 100.734C87.1967 100.734 86.79 100.84 86.4258 101.053C86.0593 101.261 85.7732 101.546 85.5651 101.913C85.3618 102.275 85.2624 102.683 85.2624 103.14C85.2624 103.591 85.3618 104 85.5651 104.367C85.7732 104.729 86.0593 105.014 86.4258 105.227C86.79 105.434 87.1967 105.536 87.6459 105.536Z" fill="black"/>
<path d="M100.982 100.01V106.26H100.264L96.5938 101.604V106.26H95.7236V100.01H96.4425L100.112 104.676V100.01H100.982Z" fill="black"/>
<path d="M106.318 100.01H107.189V105.487H110.508V106.26H106.318V100.01Z" fill="black"/>
<path d="M115.009 100.01H115.879V106.26H115.009V100.01Z" fill="black"/>
<path d="M126.475 100.01V106.26H125.756L122.086 101.604V106.26H121.216V100.01H121.935L125.604 104.676V100.01H126.475Z" fill="black"/>
<path d="M136.247 105.487V106.26H131.812V100.01H136.125V100.792H132.682V102.705H135.756V103.468H132.682V105.487H136.247Z" fill="black"/>
<path d="M50.8967 86.7411C49.3266 86.7411 47.9173 86.403 46.6688 85.7267C45.4251 85.0456 44.4485 84.1012 43.7368 82.8959C43.0227 81.6859 42.668 80.3164 42.668 78.7899C42.668 77.2635 43.0227 75.8988 43.7368 74.6936C44.4485 73.4835 45.4251 72.5391 46.6688 71.8628C47.9173 71.1817 49.3266 70.8387 50.8967 70.8387C52.2634 70.8387 53.4978 71.0875 54.5949 71.5827C55.6921 72.0802 56.6025 72.7951 57.3284 73.7274L54.6328 76.2104C53.668 75.0196 52.4952 74.4231 51.1143 74.4231C50.3008 74.4231 49.5749 74.6066 48.9388 74.9737C48.3075 75.336 47.8157 75.8481 47.4633 76.5099C47.1158 77.1741 46.9431 77.9349 46.9431 78.7899C46.9431 79.6474 47.1158 80.4082 47.4633 81.07C47.8157 81.7342 48.3075 82.2486 48.9388 82.6158C49.5749 82.9781 50.3008 83.1568 51.1143 83.1568C52.4952 83.1568 53.668 82.5626 54.6328 81.3695L57.3284 83.8524C56.6025 84.7871 55.6921 85.5021 54.5949 85.9972C53.4978 86.4923 52.2634 86.7411 50.8967 86.7411Z" fill="black"/>
<path d="M68.893 86.7411C67.3087 86.7411 65.8876 86.4006 64.6273 85.717C63.3646 85.0287 62.3762 84.0819 61.6574 82.8766C60.9385 81.6666 60.5791 80.3043 60.5791 78.7899C60.5791 77.278 60.9385 75.9181 61.6574 74.7129C62.3762 73.5028 63.3646 72.556 64.6273 71.8725C65.8876 71.1841 67.3087 70.8388 68.893 70.8388C70.4749 70.8388 71.896 71.1841 73.1587 71.8725C74.419 72.556 75.4098 73.5028 76.1286 74.7129C76.8474 75.9181 77.2069 77.278 77.2069 78.7899C77.2069 80.3043 76.8474 81.6666 76.1286 82.8766C75.4098 84.0819 74.419 85.0287 73.1587 85.717C71.896 86.4006 70.4749 86.7411 68.893 86.7411ZM68.893 83.1568C69.6496 83.1568 70.333 82.9781 70.9454 82.6158C71.5555 82.2487 72.0379 81.7342 72.3926 81.07C72.752 80.4082 72.9317 79.6474 72.9317 78.7899C72.9317 77.9349 72.752 77.1741 72.3926 76.5099C72.0379 75.8481 71.5555 75.3361 70.9454 74.9738C70.333 74.6066 69.6496 74.4231 68.893 74.4231C68.1363 74.4231 67.4506 74.6066 66.8405 74.9738C66.2281 75.3361 65.7434 75.8481 65.3839 76.5099C65.0292 77.1741 64.8543 77.9349 64.8543 78.7899C64.8543 79.6474 65.0292 80.4082 65.3839 81.07C65.7434 81.7342 66.2281 82.2487 66.8405 82.6158C67.4506 82.9781 68.1363 83.1568 68.893 83.1568Z" fill="black"/>
<path d="M88.1106 82.3743H85.8028V86.432H81.5654V71.1479H88.4038C89.7587 71.1479 90.9339 71.3774 91.9318 71.8339C92.9273 72.2928 93.6957 72.9497 94.2396 73.8048C94.7811 74.6549 95.053 75.6549 95.053 76.7997C95.053 77.9084 94.8 78.8745 94.2963 79.6981C93.7903 80.5169 93.0691 81.1618 92.1304 81.6303L95.3557 86.432H90.8251L88.1106 82.3743ZM90.7778 76.7997C90.7778 76.092 90.5556 75.5414 90.1158 75.1477C89.6736 74.7564 89.0186 74.5583 88.1484 74.5583H85.8028V79.0315H88.1484C89.0186 79.0315 89.6736 78.8382 90.1158 78.4518C90.5556 78.0654 90.7778 77.5147 90.7778 76.7997Z" fill="black"/>
<path d="M106.065 82.3743H103.757V86.432H99.5195V71.1479H106.358C107.713 71.1479 108.888 71.3774 109.886 71.8339C110.881 72.2928 111.65 72.9497 112.194 73.8048C112.735 74.6549 113.007 75.6549 113.007 76.7997C113.007 77.9084 112.754 78.8745 112.25 79.6981C111.744 80.5169 111.023 81.1618 110.084 81.6303L113.31 86.432H108.779L106.065 82.3743ZM108.732 76.7997C108.732 76.092 108.51 75.5414 108.07 75.1477C107.628 74.7564 106.973 74.5583 106.103 74.5583H103.757V79.0315H106.103C106.973 79.0315 107.628 78.8382 108.07 78.4518C108.51 78.0654 108.732 77.5147 108.732 76.7997Z" fill="black"/>
<path d="M129.486 83.0892V86.432H117.474V71.1479H129.211V74.4907H121.664V77.0606H128.313V80.2971H121.664V83.0892H129.486Z" fill="black"/>
<path d="M137.162 74.5777H132.565V71.1479H145.968V74.5777H141.39V86.432H137.162V74.5777Z" fill="black"/>
<path d="M157.233 86.7411C155.649 86.7411 154.227 86.4006 152.967 85.717C151.704 85.0287 150.716 84.0819 149.997 82.8766C149.278 81.6666 148.919 80.3043 148.919 78.7899C148.919 77.278 149.278 75.9181 149.997 74.7129C150.716 73.5028 151.704 72.556 152.967 71.8725C154.227 71.1841 155.649 70.8388 157.233 70.8388C158.815 70.8388 160.236 71.1841 161.499 71.8725C162.759 72.556 163.75 73.5028 164.468 74.7129C165.187 75.9181 165.547 77.278 165.547 78.7899C165.547 80.3043 165.187 81.6666 164.468 82.8766C163.75 84.0819 162.759 85.0287 161.499 85.717C160.236 86.4006 158.815 86.7411 157.233 86.7411ZM157.233 83.1568C157.989 83.1568 158.673 82.9781 159.285 82.6158C159.895 82.2487 160.378 81.7342 160.732 81.07C161.092 80.4082 161.272 79.6474 161.272 78.7899C161.272 77.9349 161.092 77.1741 160.732 76.5099C160.378 75.8481 159.895 75.3361 159.285 74.9738C158.673 74.6066 157.989 74.4231 157.233 74.4231C156.476 74.4231 155.79 74.6066 155.18 74.9738C154.568 75.3361 154.083 75.8481 153.724 76.5099C153.369 77.1741 153.194 77.9349 153.194 78.7899C153.194 79.6474 153.369 80.4082 153.724 81.07C154.083 81.7342 154.568 82.2487 155.18 82.6158C155.79 82.9781 156.476 83.1568 157.233 83.1568Z" fill="black"/>
<path d="M176.45 82.3743H174.143V86.432H169.905V71.1479H176.744C178.099 71.1479 179.274 71.3774 180.272 71.8339C181.267 72.2928 182.036 72.9497 182.579 73.8048C183.121 74.6549 183.393 75.6549 183.393 76.7997C183.393 77.9084 183.14 78.8745 182.636 79.6981C182.13 80.5169 181.409 81.1618 180.47 81.6303L183.696 86.432H179.165L176.45 82.3743ZM179.118 76.7997C179.118 76.092 178.895 75.5414 178.456 75.1477C178.013 74.7564 177.358 74.5583 176.488 74.5583H174.143V79.0315H176.488C177.358 79.0315 178.013 78.8382 178.456 78.4518C178.895 78.0654 179.118 77.5147 179.118 76.7997Z" fill="black"/>
<path d="M199.871 83.0892V86.432H187.859V71.1479H199.597V74.4907H192.049V77.0606H198.699V80.2971H192.049V83.0892H199.871Z" fill="black"/>
<path d="M209.619 86.7411C208.409 86.7411 207.231 86.589 206.091 86.287C204.949 85.9779 204.022 85.5697 203.311 85.0601L204.701 81.8719C205.375 82.3235 206.153 82.6882 207.037 82.9636C207.919 83.2414 208.787 83.379 209.638 83.379C211.265 83.379 212.078 82.9636 212.078 82.1327C212.078 81.6956 211.844 81.3695 211.379 81.1569C210.917 80.9444 210.173 80.7222 209.146 80.4903C208.023 80.2464 207.084 79.9831 206.328 79.6981C205.571 79.4155 204.921 78.9614 204.379 78.3359C203.843 77.7055 203.575 76.8577 203.575 75.795C203.575 74.8675 203.824 74.0318 204.323 73.283C204.819 72.5295 205.564 71.9353 206.555 71.4957C207.543 71.0586 208.759 70.8388 210.196 70.8388C211.18 70.8388 212.147 70.9523 213.1 71.1769C214.058 71.4039 214.899 71.7348 215.625 72.172L214.32 75.3795C212.894 74.5946 211.513 74.2009 210.177 74.2009C209.338 74.2009 208.725 74.3313 208.342 74.5873C207.957 74.8458 207.765 75.1766 207.765 75.5824C207.765 75.9882 207.992 76.2949 208.446 76.5002C208.9 76.7007 209.633 76.9108 210.65 77.1282C211.785 77.3794 212.726 77.6475 213.478 77.9301C214.228 78.2151 214.878 78.6643 215.427 79.2827C215.975 79.901 216.25 80.7415 216.25 81.8042C216.25 82.7196 215.999 83.5505 215.502 84.2968C215.003 85.0383 214.254 85.6301 213.251 86.0745C212.253 86.5189 211.043 86.7411 209.619 86.7411Z" fill="black"/>
</svg>
