<svg width="206" height="86" viewBox="0 0 206 86" fill="none" xmlns="http://www.w3.org/2000/svg">
<path d="M12.5346 85.782C12.1255 85.782 11.7188 85.7626 11.3121 85.7192C10.9054 85.6781 10.501 85.6177 10.0991 85.5356C9.69945 85.4535 9.3022 85.352 8.91204 85.2313C8.51952 85.1105 8.13646 84.968 7.75812 84.8086C7.37979 84.6492 7.01092 84.4705 6.6515 84.2748C6.28972 84.0768 5.93976 83.8642 5.59926 83.6323C5.26112 83.4005 4.93245 83.1517 4.61559 82.886C4.3011 82.6227 3.99844 82.3426 3.70759 82.0479C3.41911 81.7532 3.14482 81.4441 2.88472 81.1204C2.62698 80.7992 2.38343 80.4635 2.15643 80.1181C1.92706 79.7703 1.71898 79.4128 1.52508 79.0457C1.33119 78.6786 1.15857 78.3018 1.00014 77.9153C0.844083 77.5313 0.706937 77.1376 0.586343 76.7391C0.468113 76.3405 0.368801 75.9372 0.288405 75.5266C0.20801 75.1184 0.148895 74.7054 0.106332 74.2899C0.0661346 73.8769 0.0472177 73.4591 0.0448532 73.0436V38.8719C0.0424882 37.2464 0.340426 35.6813 0.936301 34.1741C1.53454 32.6694 2.38816 31.3338 3.49714 30.1672L29.0607 3.20028C29.2971 2.94667 29.5478 2.70756 29.8079 2.48052C30.0703 2.2559 30.3423 2.04093 30.6236 1.84288C30.9074 1.64482 31.1982 1.46126 31.4985 1.29219C31.7988 1.12312 32.1086 0.970953 32.4231 0.833281C32.7399 0.695609 33.0615 0.574843 33.3878 0.470985C33.7165 0.367128 34.0476 0.280176 34.3833 0.210132C34.7215 0.140089 35.0596 0.0893672 35.4001 0.0531375C35.743 0.0169078 36.0835 8.04208e-07 36.4263 8.04208e-07C36.7716 8.04208e-07 37.1121 0.0169078 37.4549 0.0531375C37.7954 0.0893672 38.1336 0.140089 38.4693 0.210132C38.8075 0.280176 39.1385 0.367128 39.4672 0.470985C39.7935 0.574843 40.1151 0.695609 40.4319 0.833281C40.7464 0.970953 41.0538 1.12312 41.3565 1.29219C41.6568 1.46126 41.9476 1.64482 42.229 1.84288C42.5128 2.04093 42.7847 2.2559 43.0448 2.48052C43.3073 2.70756 43.5579 2.94667 43.7944 3.20028L71.739 32.6791C71.914 32.8626 72.0701 33.0607 72.2072 33.2757C72.3444 33.4882 72.4579 33.7152 72.5501 33.9519C72.6423 34.1886 72.7132 34.4326 72.7582 34.6838C72.8031 34.935 72.8244 35.1886 72.8196 35.4446C72.8173 35.6982 72.7889 35.9518 72.7369 36.2006C72.6848 36.4518 72.6068 36.6933 72.5075 36.9276C72.4082 37.1619 72.2876 37.3841 72.1457 37.5942C72.0039 37.8044 71.8431 37.9976 71.6634 38.1763C71.4813 38.3526 71.2874 38.5096 71.0769 38.6497C70.8665 38.7874 70.6442 38.9033 70.4125 38.9951C70.1784 39.0893 69.9396 39.1593 69.6913 39.2052C69.4454 39.2487 69.1971 39.2704 68.9464 39.2656C68.6982 39.2608 68.4499 39.2294 68.2063 39.1762C67.9604 39.1207 67.724 39.041 67.4946 38.9395C67.2652 38.8381 67.0477 38.7125 66.842 38.5652C66.6386 38.4203 66.4494 38.2536 66.2745 38.07L38.3275 8.6009C38.2069 8.46806 38.0721 8.34971 37.9255 8.24585C37.7812 8.14199 37.6252 8.05263 37.462 7.98017C37.2989 7.91012 37.131 7.85457 36.956 7.81834C36.781 7.7797 36.606 7.76279 36.4263 7.76279C36.249 7.76279 36.074 7.7797 35.899 7.81834C35.724 7.85457 35.5562 7.91012 35.393 7.98017C35.2275 8.05263 35.0738 8.14199 34.9272 8.24585C34.7829 8.34971 34.6482 8.46806 34.5276 8.6009L8.9617 35.5581C8.5408 36.0025 8.21685 36.5146 7.99222 37.0894C7.76522 37.6643 7.65408 38.2608 7.65881 38.8816V73.0436C7.65881 73.3697 7.69192 73.6934 7.75339 74.0146C7.81724 74.3358 7.90946 74.6474 8.03242 74.9493C8.15537 75.2512 8.30671 75.5387 8.48405 75.8116C8.66376 76.0821 8.86475 76.3357 9.09175 76.5652C9.31875 76.797 9.56467 77.0047 9.83186 77.1859C10.0991 77.367 10.3804 77.5216 10.676 77.6472C10.974 77.7728 11.279 77.867 11.5935 77.9322C11.908 77.995 12.2248 78.0288 12.5464 78.0288H60.3299C60.5806 78.0288 60.8265 78.053 61.0724 78.1037C61.3159 78.152 61.5548 78.2269 61.7841 78.3235C62.0159 78.4201 62.2358 78.5409 62.4415 78.681C62.6496 78.8235 62.8411 78.9829 63.0184 79.164C63.1958 79.3428 63.3518 79.5408 63.4914 79.7509C63.6285 79.9635 63.7467 80.1857 63.8413 80.4224C63.9383 80.6567 64.0092 80.9006 64.0589 81.1494C64.1061 81.3982 64.1322 81.6518 64.1322 81.9054C64.1322 82.1614 64.1061 82.4126 64.0589 82.6614C64.0092 82.9126 63.9383 83.1541 63.8413 83.3884C63.7467 83.6251 63.6285 83.8473 63.4914 84.0599C63.3518 84.2724 63.1958 84.468 63.0184 84.6468C62.8411 84.8279 62.6496 84.9873 62.4415 85.1298C62.2358 85.2699 62.0159 85.3907 61.7841 85.4873C61.5548 85.5863 61.3159 85.6588 61.0724 85.7095C60.8265 85.7578 60.5806 85.782 60.3299 85.782H12.5346Z" fill="#FF5E00"/>
<path d="M79.3717 85.4525C78.3407 85.4525 77.4121 85.2369 76.5857 84.802C75.7673 84.3708 75.1219 83.7732 74.6497 83.0168C74.1775 82.2528 73.9414 81.398 73.9414 80.4601C73.9414 79.5145 74.1775 78.6598 74.6497 77.9033C75.1219 77.1393 75.7673 76.538 76.5857 76.103C77.4121 75.6719 78.3407 75.4525 79.3717 75.4525C80.3869 75.4525 81.3077 75.6719 82.1262 76.103C82.9526 76.538 83.5979 77.1318 84.0622 77.8882C84.5344 78.6447 84.7705 79.5032 84.7705 80.4601C84.7705 81.4094 84.5344 82.2604 84.0622 83.0168C83.5979 83.7732 82.9526 84.3708 82.1262 84.802C81.3077 85.2369 80.3869 85.4525 79.3717 85.4525ZM79.3717 84.212C80.1154 84.212 80.7883 84.0531 81.3864 83.7279C81.9846 83.395 82.4489 82.9487 82.7873 82.3814C83.1336 81.8065 83.3067 81.1673 83.3067 80.4601C83.3067 79.7452 83.1336 79.1061 82.7873 78.5387C82.4489 77.9639 81.9846 77.5176 81.3864 77.1923C80.7883 76.8595 80.1154 76.6931 79.3717 76.6931C78.6241 76.6931 77.9472 76.8595 77.3412 77.1923C76.7313 77.5176 76.2552 77.9639 75.9089 78.5387C75.5705 79.1061 75.4052 79.7452 75.4052 80.4601C75.4052 81.1673 75.5705 81.8065 75.9089 82.3814C76.2552 82.9487 76.7313 83.395 77.3412 83.7279C77.9472 84.0531 78.6241 84.212 79.3717 84.212Z" fill="#010101"/>
<path d="M101.566 75.5584V85.3466H100.369L94.2623 78.0546V85.3466H92.8142V75.5584H94.0104L100.118 82.8655V75.5584H101.566Z" fill="#010101"/>
<path d="M110.446 75.5584H111.894V84.1363H117.419V85.3466H110.446V75.5584Z" fill="#010101"/>
<path d="M124.906 75.5584H126.354V85.3466H124.906V75.5584Z" fill="#010101"/>
<path d="M143.989 75.5584V85.3466H142.793L136.686 78.0546V85.3466H135.237V75.5584H136.434L142.541 82.8655V75.5584H143.989Z" fill="#010101"/>
<path d="M160.251 84.1363V85.3466H152.869V75.5584H160.047V76.7838H154.317V79.7793H159.433V80.9744H154.317V84.1363H160.251Z" fill="#010101"/>
<path d="M40.4553 65.1936C38.8852 65.1936 37.4759 64.8555 36.2274 64.1792C34.9837 63.4981 34.0071 62.5537 33.2954 61.3485C32.5812 60.1384 32.2266 58.7689 32.2266 57.2424C32.2266 55.716 32.5812 54.3513 33.2954 53.1461C34.0071 51.936 34.9837 50.9916 36.2274 50.3153C37.4759 49.6342 38.8852 49.2913 40.4553 49.2913C41.822 49.2913 43.0564 49.54 44.1535 50.0352C45.2507 50.5327 46.1611 51.2477 46.887 52.18L44.1914 54.6629C43.2266 53.4722 42.0538 52.8756 40.6729 52.8756C39.8594 52.8756 39.1335 53.0591 38.4974 53.4263C37.8661 53.7886 37.3743 54.3006 37.0219 54.9624C36.6743 55.6266 36.5017 56.3874 36.5017 57.2424C36.5017 58.0999 36.6743 58.8607 37.0219 59.5225C37.3743 60.1867 37.8661 60.7012 38.4974 61.0683C39.1335 61.4306 39.8594 61.6093 40.6729 61.6093C42.0538 61.6093 43.2266 61.0151 44.1914 59.822L46.887 62.3049C46.1611 63.2396 45.2507 63.9546 44.1535 64.4497C43.0564 64.9449 41.822 65.1936 40.4553 65.1936Z" fill="#010101"/>
<path d="M58.452 65.1936C56.8678 65.1936 55.4466 64.8531 54.1863 64.1696C52.9236 63.4812 51.9352 62.5344 51.2164 61.3292C50.4976 60.1191 50.1382 58.7569 50.1382 57.2425C50.1382 55.7305 50.4976 54.3707 51.2164 53.1654C51.9352 51.9554 52.9236 51.0086 54.1863 50.325C55.4466 49.6367 56.8678 49.2913 58.452 49.2913C60.0339 49.2913 61.4551 49.6367 62.7177 50.325C63.9781 51.0086 64.9688 51.9554 65.6877 53.1654C66.4065 54.3707 66.7659 55.7305 66.7659 57.2425C66.7659 58.7569 66.4065 60.1191 65.6877 61.3292C64.9688 62.5344 63.9781 63.4812 62.7177 64.1696C61.4551 64.8531 60.0339 65.1936 58.452 65.1936ZM58.452 61.6093C59.2087 61.6093 59.8921 61.4306 60.5045 61.0683C61.1146 60.7012 61.5969 60.1867 61.9516 59.5225C62.311 58.8607 62.4907 58.0999 62.4907 57.2425C62.4907 56.3874 62.311 55.6266 61.9516 54.9624C61.5969 54.3006 61.1146 53.7886 60.5045 53.4263C59.8921 53.0592 59.2087 52.8756 58.452 52.8756C57.6954 52.8756 57.0096 53.0592 56.3996 53.4263C55.7871 53.7886 55.3024 54.3006 54.943 54.9624C54.5883 55.6266 54.4133 56.3874 54.4133 57.2425C54.4133 58.0999 54.5883 58.8607 54.943 59.5225C55.3024 60.1867 55.7871 60.7012 56.3996 61.0683C57.0096 61.4306 57.6954 61.6093 58.452 61.6093Z" fill="#010101"/>
<path d="M77.6693 60.8268H75.3615V64.8845H71.1241V49.6004H77.9625C79.3174 49.6004 80.4926 49.8299 81.4905 50.2864C82.486 50.7453 83.2544 51.4022 83.7983 52.2573C84.3398 53.1075 84.6117 54.1074 84.6117 55.2522C84.6117 56.3609 84.3587 57.327 83.855 58.1506C83.349 58.9694 82.6278 59.6143 81.6891 60.0829L84.9144 64.8845H80.3838L77.6693 60.8268ZM80.3365 55.2522C80.3365 54.5446 80.1143 53.9939 79.6745 53.6002C79.2323 53.2089 78.5773 53.0108 77.7071 53.0108H75.3615V57.484H77.7071C78.5773 57.484 79.2323 57.2908 79.6745 56.9043C80.1143 56.5179 80.3365 55.9672 80.3365 55.2522Z" fill="#010101"/>
<path d="M95.6237 60.8268H93.3158V64.8845H89.0785V49.6004H95.9169C97.2718 49.6004 98.447 49.8299 99.4448 50.2864C100.44 50.7453 101.209 51.4022 101.753 52.2573C102.294 53.1075 102.566 54.1074 102.566 55.2522C102.566 56.3609 102.313 57.327 101.809 58.1506C101.303 58.9694 100.582 59.6143 99.6435 60.0829L102.869 64.8845H98.3382L95.6237 60.8268ZM98.2909 55.2522C98.2909 54.5446 98.0686 53.9939 97.6288 53.6002C97.1867 53.2089 96.5317 53.0108 95.6615 53.0108H93.3158V57.484H95.6615C96.5317 57.484 97.1867 57.2908 97.6288 56.9043C98.0686 56.5179 98.2909 55.9672 98.2909 55.2522Z" fill="#010101"/>
<path d="M119.045 61.5417V64.8845H107.033V49.6004H118.771V52.9432H111.223V55.5131H117.872V58.7496H111.223V61.5417H119.045Z" fill="#010101"/>
<path d="M126.721 53.0302H122.124V49.6004H135.527V53.0302H130.949V64.8845H126.721V53.0302Z" fill="#010101"/>
<path d="M146.791 65.1936C145.207 65.1936 143.786 64.8531 142.526 64.1696C141.263 63.4812 140.275 62.5344 139.556 61.3292C138.837 60.1191 138.478 58.7569 138.478 57.2425C138.478 55.7305 138.837 54.3707 139.556 53.1654C140.275 51.9554 141.263 51.0086 142.526 50.325C143.786 49.6367 145.207 49.2913 146.791 49.2913C148.373 49.2913 149.794 49.6367 151.057 50.325C152.317 51.0086 153.308 51.9554 154.027 53.1654C154.746 54.3707 155.105 55.7305 155.105 57.2425C155.105 58.7569 154.746 60.1191 154.027 61.3292C153.308 62.5344 152.317 63.4812 151.057 64.1696C149.794 64.8531 148.373 65.1936 146.791 65.1936ZM146.791 61.6093C147.548 61.6093 148.231 61.4306 148.844 61.0683C149.454 60.7012 149.936 60.1867 150.291 59.5225C150.65 58.8607 150.83 58.0999 150.83 57.2425C150.83 56.3874 150.65 55.6266 150.291 54.9624C149.936 54.3006 149.454 53.7886 148.844 53.4263C148.231 53.0592 147.548 52.8756 146.791 52.8756C146.035 52.8756 145.349 53.0592 144.739 53.4263C144.127 53.7886 143.642 54.3006 143.282 54.9624C142.928 55.6266 142.753 56.3874 142.753 57.2425C142.753 58.0999 142.928 58.8607 143.282 59.5225C143.642 60.1867 144.127 60.7012 144.739 61.0683C145.349 61.4306 146.035 61.6093 146.791 61.6093Z" fill="#010101"/>
<path d="M166.009 60.8268H163.701V64.8845H159.464V49.6004H166.302C167.657 49.6004 168.832 49.8299 169.83 50.2864C170.825 50.7453 171.594 51.4022 172.138 52.2573C172.679 53.1075 172.951 54.1074 172.951 55.2522C172.951 56.3609 172.698 57.327 172.195 58.1506C171.689 58.9694 170.967 59.6143 170.029 60.0829L173.254 64.8845H168.723L166.009 60.8268ZM168.676 55.2522C168.676 54.5446 168.454 53.9939 168.014 53.6002C167.572 53.2089 166.917 53.0108 166.047 53.0108H163.701V57.484H166.047C166.917 57.484 167.572 57.2908 168.014 56.9043C168.454 56.5179 168.676 55.9672 168.676 55.2522Z" fill="#010101"/>
<path d="M189.43 61.5417V64.8845H177.418V49.6004H189.156V52.9432H181.608V55.5131H188.257V58.7496H181.608V61.5417H189.43Z" fill="#010101"/>
<path d="M199.178 65.1936C197.967 65.1936 196.789 65.0415 195.65 64.7396C194.508 64.4304 193.581 64.0222 192.869 63.5126L194.259 60.3244C194.933 60.7761 195.711 61.1408 196.596 61.4161C197.478 61.6939 198.345 61.8315 199.197 61.8315C200.823 61.8315 201.637 61.4161 201.637 60.5852C201.637 60.1481 201.403 59.822 200.937 59.6095C200.476 59.3969 199.731 59.1747 198.705 58.9428C197.582 58.6989 196.643 58.4356 195.886 58.1506C195.129 57.868 194.479 57.4139 193.938 56.7884C193.401 56.158 193.134 55.3102 193.134 54.2475C193.134 53.32 193.382 52.4843 193.881 51.7356C194.378 50.982 195.122 50.3878 196.113 49.9482C197.102 49.5111 198.317 49.2913 199.755 49.2913C200.738 49.2913 201.705 49.4048 202.658 49.6294C203.616 49.8565 204.458 50.1874 205.184 50.6245L203.878 53.8321C202.453 53.0471 201.072 52.6534 199.736 52.6534C198.896 52.6534 198.284 52.7838 197.901 53.0398C197.515 53.2983 197.324 53.6292 197.324 54.0349C197.324 54.4407 197.551 54.7475 198.005 54.9528C198.459 55.1532 199.192 55.3634 200.209 55.5807C201.344 55.8319 202.285 56.1 203.037 56.3826C203.786 56.6676 204.436 57.1169 204.985 57.7352C205.534 58.3535 205.808 59.194 205.808 60.2568C205.808 61.1722 205.557 62.003 205.061 62.7494C204.562 63.4909 203.812 64.0826 202.81 64.527C201.812 64.9714 200.601 65.1936 199.178 65.1936Z" fill="#010101"/>
</svg>
